<svg id="Layer_1" viewBox="0 0 24 24" xmlns="http://www.w3.org/2000/svg" data-name="Layer 1"><path d="m20 11.356v-3.356h-5v3h-1v-4h7v5.037l-.398-.311c-.189-.148-.393-.266-.602-.369zm4 6.507v6.137h-11v-6.137c0-.597.27-1.15.74-1.519l3.892-3.045c.511-.4 1.226-.4 1.736 0l3.892 3.045c.471.368.74.921.74 1.519zm-1 0c0-.288-.13-.554-.356-.731l-3.892-3.045c-.148-.116-.355-.116-.504 0l-3.892 3.045c-.227.178-.356.444-.356.731v5.137h9zm1-13.863v10.384l-1-.782v-8.602h-17v14h-3c-1.103 0-2 .897-2 2s.897 2 2 2h8v1h-8c-1.654 0-3-1.346-3-3v-18c0-1.654 1.346-3 3-3h3v4zm-19-3h-2c-1.103 0-2 .897-2 2v15.766c.531-.476 1.232-.766 2-.766h2zm12 17h3v3h-3zm1 2h1v-1h-1zm-10 1h3v-1h-2v-8h2v-1h-2v-3h2v-1h-3z"/></svg>